<svg width="25" height="24" viewBox="0 0 25 24" fill="none" xmlns="http://www.w3.org/2000/svg">
<path d="M20.9766 17.5293C21.2527 17.5293 21.4766 17.7532 21.4766 18.0293V18.6893C21.4766 18.9654 21.2527 19.1893 20.9766 19.1893L18.1993 19.1893C17.9231 19.1893 17.6993 18.9654 17.6993 18.6893L17.6993 18.0293C17.6993 17.7532 17.9231 17.5293 18.1993 17.5293L20.9766 17.5293Z" fill="#009661"/>
<path d="M13.8086 17.5293C14.0847 17.5293 14.3086 17.7532 14.3086 18.0293L14.3086 18.6893C14.3086 18.9654 14.0847 19.1893 13.8086 19.1893L4.02401 19.1893C3.74787 19.1893 3.52401 18.9654 3.52401 18.6893L3.52401 18.0293C3.52401 17.7532 3.74787 17.5293 4.02401 17.5293L13.8086 17.5293Z" fill="#009661"/>
<path d="M20.9766 11.1699C21.2527 11.1699 21.4766 11.3938 21.4766 11.6699V12.3299C21.4766 12.6061 21.2527 12.8299 20.9766 12.8299L12.0725 12.8299C11.7963 12.8299 11.5725 12.6061 11.5725 12.3299L11.5725 11.6699C11.5725 11.3938 11.7963 11.1699 12.0725 11.1699L20.9766 11.1699Z" fill="#009661"/>
<path d="M7.6582 11.1699C7.93435 11.1699 8.1582 11.3938 8.1582 11.6699L8.1582 12.3299C8.1582 12.6061 7.93435 12.8299 7.6582 12.8299L4.02423 12.8299C3.74809 12.8299 3.52423 12.6061 3.52423 12.3299L3.52423 11.6699C3.52423 11.3938 3.74809 11.1699 4.02423 11.1699L7.6582 11.1699Z" fill="#009661"/>
<path d="M20.9766 4.81152C21.2527 4.81152 21.4766 5.03538 21.4766 5.31152V5.97152C21.4766 6.24767 21.2527 6.47152 20.9766 6.47152L13.9982 6.47152C13.722 6.47152 13.4982 6.24767 13.4982 5.97152L13.4982 5.31152C13.4982 5.03538 13.722 4.81152 13.9982 4.81152L20.9766 4.81152Z" fill="#009661"/>
<path d="M10.1465 4.81152C10.4226 4.81152 10.6465 5.03538 10.6465 5.31152L10.6465 5.97152C10.6465 6.24767 10.4226 6.47152 10.1465 6.47152L4.02315 6.47152C3.74701 6.47152 3.52315 6.24767 3.52315 5.97152L3.52315 5.31152C3.52315 5.03538 3.74701 4.81152 4.02315 4.81152L10.1465 4.81152Z" fill="#009661"/>
<circle cx="9.83869" cy="11.9998" r="1.83095" stroke="#009661" stroke-width="1.66"/>
<circle cx="12.075" cy="5.64142" r="1.83095" stroke="#009661" stroke-width="1.66"/>
<circle cx="16.161" cy="18.3582" r="1.83095" stroke="#009661" stroke-width="1.66"/>
</svg>
