<svg width="30" height="30" viewBox="0 0 30 30" fill="none" xmlns="http://www.w3.org/2000/svg">
<path d="M3.49337 28.5656H1.79281L2.99532 27.3631C3.64369 26.7148 4.04858 25.8715 4.15744 24.9566C2.46551 23.8463 1.2283 22.3855 0.566021 20.7103C-0.0957876 19.0363 -0.178954 17.1935 0.325539 15.3811C0.930854 13.2064 2.3506 11.2243 4.32316 9.79977C6.4667 8.25183 9.13516 7.43359 12.0401 7.43359C15.6996 7.43359 18.7841 8.48498 20.9601 10.474C22.9204 12.266 24 14.6831 24 17.2801C24 18.5418 23.7431 19.7695 23.2364 20.929C22.7121 22.1289 21.9444 23.1973 20.9545 24.1044C18.7756 26.1013 15.693 27.1568 12.0401 27.1568C10.684 27.1568 9.26895 26.9758 8.00558 26.6436C6.80974 27.8704 5.18929 28.5656 3.49337 28.5656ZM12.0401 8.8424C6.21523 8.8424 2.64105 12.3162 1.68273 15.7589C0.777154 19.0123 2.11209 22.0865 5.25372 23.9823L5.60475 24.1942L5.59395 24.604C5.57253 25.4152 5.37915 26.1965 5.03301 26.9028C5.8759 26.6176 6.64073 26.1006 7.23966 25.393L7.53748 25.0411L7.97914 25.1732C9.21856 25.5439 10.6608 25.748 12.0401 25.748C19.2894 25.748 22.5912 21.3585 22.5912 17.2801C22.5912 15.0835 21.6744 13.0357 20.0095 11.5139C18.0976 9.7662 15.3418 8.8424 12.0401 8.8424Z" fill="#252525"/>
<rect x="11" y="1" width="18" height="18" rx="9" fill="#009661" stroke="white" stroke-width="2"/>
<path d="M22.6413 11.625V12.7292H21.9121V14H20.7246V12.7292H17.4642V11.625L19.8809 6.5H21.11L18.6829 11.625H20.7246V9.63542H21.9121V11.625H22.6413Z" fill="white"/>
</svg>
