<svg width="25" height="24" viewBox="0 0 25 24" fill="none" xmlns="http://www.w3.org/2000/svg">
<g clip-path="url(#clip0_1167_133)">
<path d="M22.2432 5.36444L21.7133 3.776C21.5115 3.17102 20.9474 2.76453 20.3098 2.76453H15.8561V1.31451C15.8561 0.589783 15.2669 0 14.5423 0H10.4638C9.73947 0 9.15005 0.589783 9.15005 1.31451V2.76453H4.69656C4.0588 2.76453 3.49465 3.17102 3.29287 3.776L2.76297 5.36444C2.6423 5.72607 2.70346 6.12653 2.9263 6.43579C3.14913 6.74506 3.50967 6.92981 3.89089 6.92981H4.44479L5.66391 22.0051C5.75454 23.1237 6.70376 24 7.82528 24H17.4282C18.5496 24 19.499 23.1237 19.5894 22.0049L20.8086 6.92981H21.1153C21.4965 6.92981 21.857 6.74506 22.0799 6.43597C22.3027 6.12671 22.3639 5.72607 22.2432 5.36444ZM10.5563 1.40625H14.4499V2.76453H10.5563V1.40625ZM18.1878 21.8915C18.1559 22.2854 17.8223 22.5938 17.4282 22.5938H7.82528C7.43124 22.5938 7.09762 22.2854 7.06576 21.8915L5.85562 6.92981H19.3977L18.1878 21.8915ZM4.19247 5.52356L4.62698 4.22095C4.63687 4.19092 4.66488 4.17078 4.69656 4.17078H20.3098C20.3415 4.17078 20.3693 4.19092 20.3794 4.22095L20.8139 5.52356H4.19247Z" fill="#EB5757"/>
<path d="M15.9468 21.8421C15.9593 21.8428 15.9715 21.843 15.984 21.843C16.3555 21.843 16.6661 21.5519 16.6855 21.1765L17.3458 8.50156C17.3659 8.11375 17.0678 7.78287 16.6802 7.76273C16.2914 7.74204 15.9617 8.0405 15.9413 8.42832L15.2812 21.1032C15.2611 21.4911 15.559 21.8219 15.9468 21.8421Z" fill="#EB5757"/>
<path d="M8.35554 21.178C8.37605 21.5528 8.68623 21.8429 9.05702 21.8429C9.06984 21.8429 9.08302 21.8425 9.09602 21.8418C9.48365 21.8207 9.78083 21.4893 9.75977 21.1015L9.06819 8.42655C9.04713 8.03873 8.71571 7.74155 8.32789 7.76279C7.94026 7.78385 7.64308 8.11527 7.66414 8.50309L8.35554 21.178Z" fill="#EB5757"/>
<path d="M12.5117 21.8429C12.9001 21.8429 13.2148 21.5281 13.2148 21.1398V8.46484C13.2148 8.07648 12.9001 7.76172 12.5117 7.76172C12.1234 7.76172 11.8086 8.07648 11.8086 8.46484V21.1398C11.8086 21.5281 12.1234 21.8429 12.5117 21.8429Z" fill="#EB5757"/>
</g>
<defs>
<clipPath id="clip0_1167_133">
<rect width="24" height="24" fill="white" transform="translate(0.5)"/>
</clipPath>
</defs>
</svg>
