<svg width="32" height="30" viewBox="0 0 32 30" fill="none" xmlns="http://www.w3.org/2000/svg">
<path d="M22.1996 0.231019C20.9112 0.244272 19.5897 0.495872 18.2968 1.01195L18.2381 1.03686L18.1794 1.0671C17.3598 1.48449 16.6128 2.00662 15.9487 2.62539C12.3747 -0.465728 6.68484 -0.690075 2.79215 2.81929L2.753 2.85486L2.71743 2.89222C-0.697396 6.45905 -0.617423 11.9521 1.42951 16.2925L1.4473 16.3263L1.46508 16.3618C3.87586 20.826 8.37751 24.6192 12.4799 27.7377L12.4905 27.7466L12.4994 27.7538C12.7633 27.9473 13.2171 28.3473 13.7411 28.741C14.2649 29.1348 14.8568 29.5663 15.7227 29.7318L15.9166 29.7692L16.1123 29.7532C17.0211 29.6748 17.3777 29.3392 17.9748 28.9634C18.5719 28.5875 19.2328 28.1104 19.912 27.5883C21.2507 26.5591 22.6359 25.3729 23.548 24.5269C23.5597 24.516 23.5791 24.5003 23.5907 24.4895C23.5926 24.4879 23.5941 24.4858 23.596 24.4842C25.5174 22.8446 27.4206 20.9545 29.034 18.7313C29.0345 18.7306 29.0353 18.7302 29.0358 18.7296C29.0388 18.7255 29.0416 18.7212 29.0447 18.7171C31.6035 15.272 32.8447 10.6292 31.3643 6.0551L31.3376 5.97326L31.3021 5.89675C29.6399 2.30331 26.0649 0.191312 22.1996 0.231019ZM22.2459 3.04521C25.0308 2.98115 27.4718 4.47235 28.6836 7.02275C29.8033 10.5933 28.8354 14.2313 26.75 17.0325L26.7446 17.0396L26.7393 17.0467C25.2865 19.0515 23.5271 20.8064 21.7033 22.3584L21.6802 22.3798L21.6571 22.4011C20.8358 23.1656 19.4457 24.3564 18.1758 25.3327C17.5408 25.8209 16.9321 26.2571 16.4592 26.5548C16.2814 26.6667 16.1123 26.743 15.9736 26.8021C15.8277 26.7224 15.6426 26.6102 15.4506 26.4659C15.0639 26.1753 14.6522 25.8043 14.2036 25.4732C14.1966 25.4679 14.1892 25.4626 14.1823 25.4572C10.2011 22.4291 6.00759 18.7523 3.99108 15.0455C2.35399 11.5481 2.42543 7.36195 4.7382 4.90233C7.8829 2.10627 12.5548 2.71414 14.8849 5.58363L16.0198 6.98006L17.1174 5.55518C17.7489 4.7359 18.5025 4.10958 19.4175 3.63401C20.3765 3.25937 21.3293 3.06627 22.2459 3.04521Z" fill="#009661"/>
</svg>
